<svg xmlns="http://www.w3.org/2000/svg" width="50" height="50" viewBox="0 0 50 50"><path style="text-indent:0;text-align:start;line-height:normal;text-transform:none;block-progression:tb;-inkscape-font-specification:Bitstream Vera Sans" d="M16.813 0A1 1 0 0 0 16 1v1H7.906A2.913 2.913 0 0 0 5 4.906V47c0 1.645 1.306 3 2.906 3H42c1.645 0 2.906-1.373 2.906-2.906V5c.004-.033-.002-.061 0-.094C45.01 3.301 43.662 2 42.094 2H34V1a1 1 0 0 0-1-1H17a1 1 0 0 0-.094 0 1 1 0 0 0-.093 0zM18 2h14v6H18V2zM7.906 4H16v2H9v40h32V6h-7V4h8.094c.4 0 .847.463.812.813a1 1 0 0 0 0 .093v42.188A.893.893 0 0 1 42 48H7.906c-.4 0-.906-.445-.906-1V4.906c0-.4.506-.906.906-.906zM11 8h5v1a1 1 0 0 0 1 1h16a1 1 0 0 0 1-1V8h5v36H11V8zm4 9v8h8v-8h-8zm2 2h4v4h-4v-4zm9 1v2h9v-2h-9zM15 30v8h8v-8h-8zm2 2h4v4h-4v-4zm1 1v2h2v-2h-2zm8 0v2h9v-2h-9z"/></svg>