<svg xmlns="http://www.w3.org/2000/svg" viewBox="0 0 50 50"><path style="text-indent:0;text-align:start;line-height:normal;text-transform:none;block-progression:tb;-inkscape-font-specification:Bitstream Vera Sans" d="M7 2v46h36V14.594l-.281-.313-12-12L30.406 2H7zm2 2h20v12h12v30H9V4zm22 1.438L39.563 14H31V5.437zM14 10v2h13v-2H14zm0 4v2h13v-2H14zm0 4v2h23v-2H14zm0 4v2h23v-2H14zm0 4v2h23v-2H14zm6.156 4.563c-1.138 0-2.064.726-2.687 1.656-.624.93-1 2.123-1 3.437 0 1.103.343 2.297 1 3.313.087.134.242.215.343.343-.323.29-.937.907-.937.907a1 1 0 1 0 1.156 1.625s.839-.815 1.438-1.344c.366.144.697.375 1.125.375 2.522 0 4.194-1.358 5.156-2.594.283-.363.433-.625.625-.937.072.214.134.419.219.625.061.149.132.295.25.468.117.174.34.563.968.563.667 0 1.078-.319 1.47-.594.39-.275.742-.576 1.124-.875.765-.597 1.537-1.062 2.094-1.062a1 1 0 1 0 0-2c-1.407 0-2.472.812-3.313 1.468-.358.28-.647.526-.906.72-.031-.094-.06-.15-.093-.25a7.873 7.873 0 0 0-.407-.97c-.08-.162-.152-.35-.312-.53a1.24 1.24 0 0 0-.938-.438c-.65 0-.872.392-1.031.593-.159.202-.28.381-.406.594-.253.426-.534.928-.907 1.407-.672.863-1.632 1.575-3.156 1.718 1.026-1.384 1.938-3.107 1.938-5.187 0-.678-.123-1.414-.594-2.032-.47-.617-1.3-1-2.219-1zm0 2c.436 0 .52.08.625.218.105.138.188.435.188.813 0 1.595-.867 3.09-1.813 4.281-.419-.648-.687-1.56-.687-2.219 0-.918.277-1.779.656-2.343.379-.565.813-.75 1.031-.75z"/></svg>