<svg xmlns="http://www.w3.org/2000/svg" viewBox="0 0 50 50"><path d="M16 2v12a1 1 0 1 0 2 0V4h18v9.906h9.906V42H33a1 1 0 1 0 0 2h14.906V12.5l-.281-.313-9.906-9.906L37.406 2H16zm22 3.438l6.469 6.468H38V5.437zM16.875 16c-3.528.065-5.812 1.643-6.75 3.875-.881 2.096-.67 4.555-.094 6.969a2.933 2.933 0 0 0-.594 1.937c.042 1.136.47 1.978.907 2.5.278.332.404.38.594.5.224.852.554 1.687 1 2.282.362.482.712.712 1.062 1 .017.869.06 1.58 0 2.437-.203.467-.697.904-1.625 1.344-.967.458-2.278.872-3.594 1.406-1.316.534-2.65 1.199-3.75 2.25S2.115 45.029 2 46.938A1 1 0 0 0 3 48h28a1 1 0 0 0 1-1.063c-.115-1.908-.93-3.386-2.031-4.437-1.1-1.051-2.434-1.716-3.75-2.25-1.316-.534-2.627-.948-3.594-1.406-.929-.44-1.422-.877-1.625-1.344-.06-.856-.017-1.568 0-2.438.387-.305.79-.577 1.125-1.062.407-.587.672-1.379.875-2.188a3.398 3.398 0 0 0 1.5-2.843c0-.872-.211-1.488-.531-2.032.361-1.216.784-3.053.593-4.937-.105-1.044-.393-2.121-1.093-2.969-.617-.747-1.626-1.17-2.782-1.281-.806-1.004-2.081-1.75-3.78-1.75a1 1 0 0 0-.032 0zm.031 2c1.312 0 2.203.69 2.469 1.156a1 1 0 0 0 .875.5c.905 0 1.32.249 1.656.657.337.407.575 1.072.657 1.875.162 1.604-.292 3.652-.594 4.562a1 1 0 0 0 .25 1.031c-.094-.095.281.46.281 1.188 0 .727-.813 1.343-.813 1.343a1 1 0 0 0-.468.688 4.578 4.578 0 0 1-.75 1.875c-.354.51-.814.862-.907.906a1 1 0 0 0-.562.907c0 .89-.085 1.68-.031 2.718a6.275 6.275 0 0 1-.407.188C18.04 37.818 17.37 38 17 38s-1.051-.211-1.594-.438c-.22-.091-.22-.113-.375-.187.05-1.023-.031-1.806-.031-2.688a1 1 0 0 0-.531-.906c.046.024-.534-.398-.938-.937-.404-.539-.73-1.206-.812-1.813a1 1 0 0 0-.563-.781s-.09-.023-.281-.25c-.19-.227-.412-.612-.438-1.313-.018-.486.344-.906.344-.906a1 1 0 0 0 .25-.968c-.606-2.328-.716-4.633-.062-6.188.653-1.555 1.924-2.57 4.937-2.625zm2.813 21.219c.549.628 1.293 1.073 2.062 1.437 1.154.547 2.466.942 3.688 1.438 1.222.495 2.327 1.082 3.125 1.843.564.54.926 1.239 1.156 2.063H18.937c-.312-2.478-1.625-4.531-1.625-4.531l.813-1.625a8.551 8.551 0 0 0 1.219-.438c.217-.093.207-.108.375-.187zm-5.469.031c.132.062.221.123.375.188a8.54 8.54 0 0 0 1.156.374l.844 1.657S15.282 43.544 14.969 46H4.25c.23-.824.592-1.524 1.156-2.063.798-.761 1.903-1.348 3.125-1.843 1.222-.496 2.534-.891 3.688-1.438.755-.358 1.485-.795 2.031-1.406z"/></svg>