<svg xmlns="http://www.w3.org/2000/svg" viewBox="0 0 50 50"><path style="text-indent:0;text-align:start;line-height:normal;text-transform:none;block-progression:tb;-inkscape-font-specification:Bitstream Vera Sans" d="M4.813 9A1 1 0 0 0 4 10c0 1.655-1.345 3-3 3a1 1 0 0 0-1 1v22a1 1 0 0 0 1 1c1.655 0 3 1.345 3 3a1 1 0 0 0 1 1h40a1 1 0 0 0 1-1c0-1.655 1.345-3 3-3a1 1 0 0 0 1-1V14a1 1 0 0 0-1-1c-1.655 0-3-1.345-3-3a1 1 0 0 0-1-1H5a1 1 0 0 0-.094 0 1 1 0 0 0-.093 0zm.968 2H44.22A4.866 4.866 0 0 0 48 14.781V35.22A4.866 4.866 0 0 0 44.219 39H5.78A4.866 4.866 0 0 0 2 35.219V14.78A4.866 4.866 0 0 0 5.781 11zM10 20v2h30v-2H10zm0 8v2h30v-2H10z" color="#000" overflow="visible" font-family="Bitstream Vera Sans"/></svg>