<svg xmlns="http://www.w3.org/2000/svg" viewBox="0 0 50 50"><path style="text-indent:0;text-align:start;line-height:normal;text-transform:none;block-progression:tb;-inkscape-font-specification:Bitstream Vera Sans" d="M2.813 0C1.278 0 0 1.28 0 2.813v5A1 1 0 0 0 0 8v32a1 1 0 0 0 1 1h23a1 1 0 1 0 0-2H2V9h40v13a1 1 0 1 0 2 0V8a1 1 0 0 0 0-.188v-5C44 1.28 42.72 0 41.187 0H2.813zm0 2h38.374a.79.79 0 0 1 .813.813V7H2V2.812A.79.79 0 0 1 2.813 2zM7 15v2h4v-2H7zm7 0v2h23v-2H14zm-7 5v2h4v-2H7zm7 0v2h23v-2H14zm31.906 4.906A4.09 4.09 0 0 0 43 26.094l-.688.718.032.032L26.906 42.28a1 1 0 0 0-.281.438l-1.688 6a1 1 0 0 0 1.22 1.25l6-1.594a1 1 0 0 0 .437-.281l15.812-15.688a1 1 0 0 0 .282-.375 1 1 0 0 0 0-.031l.124-.094a4.12 4.12 0 0 0 0-5.812 4.09 4.09 0 0 0-2.906-1.188zM7 25v2h4v-2H7zm7 0v2h23v-2H14zm29.75 3.25l3 3L31.406 46.5l-2.937-2.844.031-.125L43.75 28.25zM7 30v2h4v-2H7zm7 0v2h19v-2H14z"/></svg>