<svg xmlns="http://www.w3.org/2000/svg" width="50" height="50" viewBox="0 0 50 50"><path style="text-indent:0;text-align:start;line-height:normal;text-transform:none;block-progression:tb;-inkscape-font-specification:Bitstream Vera Sans" d="M24.906 0a1 1 0 0 0-.375.125L12.688 6.594a1 1 0 0 0-.407.25 1 1 0 0 0-.094.093 1 1 0 0 0-.03.063 1 1 0 0 0-.063.094 1 1 0 0 0-.031.093 1 1 0 0 0-.032.094 1 1 0 0 0-.031.094 1 1 0 0 0 0 .094 1 1 0 0 0 0 .031 1 1 0 0 0 0 .031 1 1 0 0 0 0 .157V19.53a1 1 0 0 0 .375.782l11.781 9.656a1 1 0 0 0 1.625.031l11.844-9.688a1 1 0 0 0 .375-.78V7.75a1 1 0 0 0 0-.219 1 1 0 0 0 0-.062 1 1 0 0 0 0-.032 1 1 0 0 0-.031-.187 1 1 0 0 0-.094-.188A1 1 0 0 0 37.844 7a1 1 0 0 0-.032-.031 1 1 0 0 0-.03-.063 1 1 0 0 0-.032 0 1 1 0 0 0-.031-.062 1 1 0 0 0-.032-.032 1 1 0 0 0-.03-.062 1 1 0 0 0-.032 0 1 1 0 0 0-.063-.031 1 1 0 0 0-.03 0 1 1 0 0 0-.063-.063 1 1 0 0 0-.157-.062L25.47.125A1 1 0 0 0 24.906 0zM25 2.125l10.031 5.5L25 14 14.969 7.625 25 2.125zM3.5 9C1.677 9 .182 10.432.031 12.219v.031A1 1 0 0 0 0 12.5a1 1 0 0 0 0 .094v14.812c0 2.04.214 3.3.688 4.282.473.981 1.148 1.555 1.75 2.218.56.618 2.796 3.363 4.843 5.875 1.93 2.37 3.521 4.318 3.719 4.563V49a1 1 0 1 0 2 0v-5a1 1 0 0 0-.219-.625s-1.886-2.327-3.937-4.844c-2.051-2.516-4.217-5.174-4.938-5.968-.678-.749-1.118-1.123-1.406-1.72-.288-.596-.5-1.547-.5-3.437v-14.75a1 1 0 0 0 0-.156 1 1 0 0 0 0-.094A1.485 1.485 0 0 1 3.5 11c.82 0 1.468.627 1.5 1.438v.062a1 1 0 0 0 0 .094v10.5c-.062.053-.129.098-.188.156v.031c-1.446 1.465-1.456 3.856 0 5.313l7.907 7.937a1.016 1.016 0 1 0 1.437-1.437L6.22 27.187a1.79 1.79 0 0 1 0-2.53c.055-.056.128-.08.187-.126a1 1 0 0 0 .313-.25c.654-.31 1.453-.172 2 .375l8.25 8.282C19.208 35.175 20 37.184 20 41v8a1 1 0 1 0 2 0v-8c0-4.13-1.092-6.968-3.625-9.5l-8.25-8.25A3.73 3.73 0 0 0 7 22.187v-9.53a1 1 0 0 0 0-.157v-.094a1 1 0 0 0 0-.094c-.002-.033-.028-.06-.031-.093a1 1 0 0 0 0-.031C6.803 10.415 5.312 9 3.5 9zm43 0c-1.834 0-3.334 1.449-3.469 3.25a1 1 0 0 0-.031.25 1 1 0 0 0 0 .094v9.594a3.739 3.739 0 0 0-3.125 1.062l-8.25 8.25C29.092 34.032 28 36.87 28 41v8a1 1 0 1 0 2 0v-8c0-3.815.792-5.824 3.031-8.063l8.25-8.28c.53-.532 1.295-.682 1.938-.407.025.01.038.05.062.063a1 1 0 0 0 .094.062 1 1 0 0 0 .25.156c.053.042.107.076.156.125a1.79 1.79 0 0 1 0 2.532l-7.937 7.906a1.016 1.016 0 1 0 1.437 1.437l7.907-7.937c1.456-1.457 1.446-3.848 0-5.313-.007-.006.006-.025 0-.031-.06-.058-.126-.103-.188-.156V12.656a1 1 0 0 0 0-.156 1 1 0 0 0 0-.094A1.485 1.485 0 0 1 46.5 11c.84 0 1.5.66 1.5 1.5a1 1 0 0 0 0 .094v14.812c0 1.89-.212 2.841-.5 3.438-.288.596-.728.97-1.406 1.718-.721.795-2.887 3.453-4.938 5.97-2.05 2.516-3.937 4.843-3.937 4.843A1 1 0 0 0 37 44v5a1 1 0 1 0 2 0v-4.656c.198-.245 1.788-2.194 3.719-4.563 2.047-2.512 4.283-5.257 4.843-5.875.602-.663 1.277-1.237 1.75-2.218.474-.982.688-2.242.688-4.282v-14.75a1 1 0 0 0 0-.156v-.094a1 1 0 0 0 0-.094c-.002-.033-.028-.06-.031-.093a1 1 0 0 0 0-.031C49.803 10.415 48.312 9 46.5 9zM14 9.344l10 6.375V27.28l-10-8.187v-9.75zm22 0v9.75L26 27.28V15.72l10-6.375z"/></svg>