<svg xmlns="http://www.w3.org/2000/svg" viewBox="0 0 50 50"><path d="M38.651 41.587h11.41l-.063-1.06c-.311-5.208-4.443-6.839-7.765-8.149-1.844-.728-3.59-1.417-4.097-2.528-.077-.936-.07-1.667-.063-2.507l.002-.339c.796-.832 1.516-2.47 1.8-3.841.615-.347 1.346-1.148 1.569-2.993.109-.923-.146-1.646-.513-2.14.503-1.74 1.467-6.042-.266-8.83-.738-1.188-1.85-1.941-3.309-2.243-.835-1.014-2.388-1.565-4.456-1.565-2.374.044-4.271.623-5.666 1.698a6.19 6.19 0 0 0-2.162-.855c-.944-1.193-2.754-1.843-5.185-1.843-3.681.068-6.375 1.193-8.006 3.343-1.934 2.548-2.292 6.41-1.07 11.484-.451.551-.783 1.401-.65 2.513.265 2.205 1.122 3.104 1.844 3.465.343 1.73 1.288 3.68 2.208 4.597l.002.468c.009 1.015.017 1.896-.08 3.033-.612 1.405-2.649 2.207-4.999 3.131C5.228 37.963.365 39.875 0 45.942L-.062 47h40.124l-.063-1.06c-.108-1.779-.607-3.193-1.348-4.353zm-2.742-33.22l.244.428.487.067c1.076.15 1.837.606 2.327 1.394.339.546.525 1.223.616 1.953A.976.976 0 0 0 39 12a1 1 0 1 0 0 2c.244 0 .46-.098.633-.243-.065 1.577-.434 3.188-.784 4.24l-.008.035A.987.987 0 0 0 38 19a1 1 0 0 0 1 1 .977.977 0 0 0 .458-.125c-.002.021.003.034 0 .056-.138 1.144-.488 1.473-.562 1.497l-.821.07-.088.819c-.161 1.499-1.08 3.108-1.374 3.336l-.535.281-.004 1.079c-.026 0-.048-.013-.074-.013a1 1 0 1 0 0 2c.031 0 .056-.015.086-.017.013.373.032.761.071 1.194l.059.259c.697 1.871 2.65 2.754 4.793 3.607A.994.994 0 0 0 42 35c.269 0 .51-.109.689-.281.93.386 1.829.812 2.619 1.343A.987.987 0 0 0 45 36a1 1 0 1 0 1 1 .97.97 0 0 0-.198-.566c.847.67 1.51 1.515 1.879 2.63a.99.99 0 0 0-.587.523h-4.189C42.748 39.242 42.404 39 42 39s-.748.242-.905.587h-4.143c-.014 0-.026.008-.04.008a.984.984 0 0 0-.732-.559c-.761-.544-1.584-1-2.424-1.401A.984.984 0 0 0 34 37a1 1 0 0 0-1-1 .989.989 0 0 0-.975.877c-.381-.156-.76-.307-1.128-.452-2.34-.924-4.368-1.725-4.979-3.131-.096-1.137-.088-2.02-.079-3.034l.002-.474c.897-.918 1.821-2.867 2.157-4.602.559-.289 1.221-.926 1.604-2.27A.96.96 0 0 0 30 23a1 1 0 1 0 0-2c-.051 0-.094.022-.143.029-.043-.751-.303-1.352-.641-1.778.162-.554.372-1.36.547-2.299.078.02.153.048.237.048a.996.996 0 1 0 .03-1.994c.115-1.315.092-2.729-.223-4.045.064.013.124.039.193.039a1 1 0 1 0 0-2 .982.982 0 0 0-.759.37 6.168 6.168 0 0 0-.295-.542c-.073-.117-.167-.208-.245-.318.87-.586 2.017-.94 3.42-1.057A.99.99 0 0 0 33 8a.991.991 0 0 0 .88-.549c1.018.125 1.765.451 2.029.916zM2.128 45c.756-3.967 4.303-5.361 7.741-6.714 2.739-1.077 5.327-2.095 6.188-4.409l.059-.259c.118-1.306.109-2.311.1-3.375l-.005-.925.018-.594-.535-.281c-.438-.297-1.608-2.315-1.801-4.119l-.087-.823-.825-.068c-.128-.011-.645-.371-.833-1.94-.096-.807.296-1.091.298-1.092l.635-.386-.187-.719c-1.214-4.671-1.013-8.251.582-10.352 1.243-1.638 3.413-2.497 6.432-2.552 1.877 0 3.265.469 3.711 1.253l.244.428.488.068c1.336.186 2.284.755 2.897 1.742 1.536 2.472.647 7.04-.12 9.349l-.211.746.639.423c.004.002.396.287.298 1.093-.188 1.569-.705 1.93-.833 1.94l-.824.068-.088.822c-.194 1.814-1.329 3.829-1.73 4.11l-.534.281-.005 1.527c-.009 1.064-.018 2.07.1 3.376l.059.259c.86 2.313 3.438 3.331 6.167 4.408 3.424 1.352 6.956 2.747 7.71 6.715H2.128zM35 16a1 1 0 1 1 2 0 1 1 0 0 1-2 0zm3 21a1 1 0 1 1 2 0 1 1 0 0 1-2 0zm-3-27a1 1 0 1 1 2 0 1 1 0 0 1-2 0zm-4 18a1 1 0 1 1-2 0 1 1 0 0 1 2 0zm-3 3a1 1 0 1 1-2 0 1 1 0 0 1 2 0zm3 3a1 1 0 1 1-2 0 1 1 0 0 1 2 0zm4 0a1 1 0 1 1 2 0 1 1 0 0 1-2 0zm-1-21a1 1 0 1 1-2 0 1 1 0 0 1 2 0zm0 6a1 1 0 1 1-2 0 1 1 0 0 1 2 0zm0 6a1 1 0 1 1-2 0 1 1 0 0 1 2 0zm1-3a1 1 0 1 1 2 0 1 1 0 0 1-2 0zm-1 9a1 1 0 1 1-2 0 1 1 0 0 1 2 0z"/></svg>