<svg xmlns="http://www.w3.org/2000/svg" viewBox="0 0 32 32"><path style="text-indent:0;text-align:start;line-height:normal;text-transform:none;block-progression:tb;-inkscape-font-specification:Bitstream Vera Sans" d="M22.625 3.031c-.32.03-.648.116-.969.25V3.25c-.015.005-.047.026-.062.031-2.436.854-7.096 3.002-11.313 7.219-4.25 4.25-6.3 8.997-7.219 11.344v.031a3.592 3.592 0 0 0 .688 3.469l.031.031v.031l3 2.969.125.125c.83.83 2.264.83 3.094 0l4.094-4.094c.83-.83.83-2.295 0-3.125l-1.969-1.968c.342-.716 1.234-2.472 2.813-4.125 1.566-1.642 3.364-2.478 4.062-2.782l2 2 .063.063.093.062c.47.314 1.006.49 1.563.469.521-.02 1.068-.279 1.468-.719l.032.031.062-.093 4.032-4c.83-.83.83-2.295 0-3.125L25.218 4a3.439 3.439 0 0 0-1.657-.906 2.984 2.984 0 0 0-.937-.063zm.156 2a1.32 1.32 0 0 1 1 .375L26.906 8.5c.17.17.17.111 0 .281l-4.125 4.125-.031.031-.031.032c.003-.004-.001.027-.094.031-.079.003-.197-.064-.313-.125h-.062L19.906 10.5l-.468-.469-.594.219s-3.073 1.15-5.375 3.563c-2.261 2.368-3.5 5.28-3.5 5.28l-.25.626.469.5 2.5 2.5c.17.17.17.111 0 .281l-4.094 4.094c-.17.17-.111.17-.281 0L5.25 24.062c-.008-.009.008-.022 0-.03L5.219 24c-.348-.435-.453-.894-.282-1.438.004-.01-.003-.02 0-.03.886-2.26 2.842-6.686 6.782-10.626 3.956-3.956 8.447-5.992 10.625-6.75l.031-.031h.031a1.13 1.13 0 0 1 .375-.094z" color="#000" overflow="visible" font-family="Bitstream Vera Sans"/></svg>